<?xml version="1.0" encoding="utf-8"?>
<!-- Generator: Adobe Illustrator 22.0.1, SVG Export Plug-In . SVG Version: 6.00 Build 0)  -->
<svg version="1.1" id="Layer_1" xmlns="http://www.w3.org/2000/svg" xmlns:xlink="http://www.w3.org/1999/xlink" x="0px" y="0px"
	 viewBox="0 0 120.5 47.8" style="enable-background:new 0 0 120.5 47.8;" xml:space="preserve">
<style type="text/css">
	.st0{fill:#06A99C;}
	.st1{fill:#6C1D5F;}
</style>
<title>academy-logo-small</title>
<g>
	<path class="st0" d="M4,8V4.1c0-0.7,0.5-1.3,1.2-1.3h20.6c0.6,0,1.2,0.6,1.2,1.3v3.8l2,0.8V4.1c0-1.8-1.4-3.2-3.2-3.2H5.2
		c-1.7,0-3.2,1.4-3.2,3.2v4.8L4,8z"/>
	<path class="st0" d="M27,13.8C26.6,21.1,21.6,27,15.5,27C9.4,27,4.4,21.1,4.1,13.7l-2-0.7c0,8.8,6.1,16,13.5,16
		c7.4,0,13.4-7.1,13.5-15.9L27,13.8z"/>
</g>
<polygon class="st1" points="15.5,6 0.6,10.9 15.5,15.8 22.6,13.5 22.6,13.5 23.2,13.3 13.7,10.5 16.2,9.7 25.5,12.6 26.1,12.4 
	30.5,10.9 "/>
<g>
	<path class="st1" d="M23.3,13.3l0.1,3.6c0,0,1.5-1.3,2-2.2l0.1-2.1L23.3,13.3z"/>
</g>
<g>
	<path class="st0" d="M55.8,40.9h-5.7l-0.9,2.4h-1.9l4.6-11.6h2.2l4.6,11.6h-1.9L55.8,40.9z M50.6,39.4h4.7L53,33.3L50.6,39.4z"/>
	<path class="st0" d="M63.8,34.7c1.6,0,2.5,0.7,3.1,1.5l-1,1c-0.5-0.7-1.2-1-2-1c-1.6,0-2.7,1.3-2.7,3c0,1.7,1.1,3,2.7,3
		c0.8,0,1.5-0.3,2-1l1,1c-0.6,0.8-1.6,1.5-3.1,1.5c-2.5,0-4.3-1.9-4.3-4.4C59.5,36.6,61.2,34.7,63.8,34.7z"/>
	<path class="st0" d="M74.6,42.1c-0.6,0.8-1.6,1.4-2.7,1.4c-2.2,0-3.7-1.6-3.7-4.4c0-2.7,1.6-4.4,3.7-4.4c1.1,0,2.1,0.5,2.7,1.4
		v-1.2h1.6v8.4h-1.6V42.1z M74.6,37.4c-0.4-0.7-1.4-1.2-2.3-1.2c-1.6,0-2.5,1.2-2.5,3c0,1.7,1,3,2.5,3c1,0,1.9-0.5,2.3-1.2V37.4z"/>
	<path class="st0" d="M84.6,42.1C84,43,83,43.5,81.9,43.5c-2.2,0-3.7-1.6-3.7-4.4c0-2.7,1.6-4.4,3.7-4.4c1.1,0,2.1,0.5,2.7,1.4v-4.4
		h1.6v11.6h-1.6V42.1z M84.6,37.4c-0.4-0.7-1.4-1.2-2.3-1.2c-1.6,0-2.5,1.3-2.5,3c0,1.7,1,3,2.5,3c1,0,1.9-0.5,2.3-1.2V37.4z"/>
	<path class="st0" d="M92.3,34.7c2.5,0,4.1,2,4.1,4.5v0.4h-6.6c0.1,1.4,1.2,2.6,2.8,2.6c0.9,0,1.9-0.3,2.5-1l0.7,1
		c-0.8,0.8-2,1.2-3.4,1.2c-2.5,0-4.3-1.8-4.3-4.4C88.1,36.7,89.9,34.7,92.3,34.7z M89.8,38.5h5.1c0-1.1-0.8-2.5-2.5-2.5
		C90.7,36,89.9,37.4,89.8,38.5z"/>
	<path class="st0" d="M108.5,37.7c0-1-0.4-1.6-1.5-1.6c-0.8,0-1.7,0.6-2.1,1.2v6h-1.6v-5.6c0-1-0.4-1.6-1.5-1.6
		c-0.8,0-1.6,0.6-2,1.2v6h-1.6v-8.4h1.6v1.2c0.3-0.5,1.5-1.4,2.7-1.4c1.3,0,2,0.7,2.3,1.6c0.5-0.8,1.6-1.6,2.8-1.6
		c1.5,0,2.4,0.8,2.4,2.5v6.1h-1.6V37.7z"/>
	<path class="st0" d="M113.1,45.3c0.6,0,1-0.2,1.2-0.8l0.5-1.1l-3.5-8.5h1.7l2.6,6.6l2.6-6.6h1.7l-4.1,10c-0.5,1.3-1.5,1.8-2.7,1.8
		c-0.3,0-0.7-0.1-1-0.1l0.2-1.4C112.6,45.3,112.9,45.3,113.1,45.3z"/>
</g>
<g>
	<g>
		<path class="st1" d="M75.8,13.8h-8c0.5-1.8,2.1-3,3.9-3C73.9,10.8,75.3,11.9,75.8,13.8 M67.8,16.5h11.7c0-0.3,0-0.5,0-0.7
			c0-1.9-0.4-3.5-1.4-4.8c-1.6-2.1-3.9-3.3-6.3-3.3c-2,0-3.9,0.9-5.4,2.4c-1.4,1.4-2.1,3.2-2.1,5.3c0,1.9,0.8,3.9,2.2,5.4
			C68,22.3,69.8,23,72,23c3.2,0,5.8-1.8,7-5h-3.7c-0.7,1.2-2,1.8-3.5,1.8C69.5,19.9,68,18.6,67.8,16.5"/>
	</g>
	<g>
		<path class="st1" d="M84.8,15.5c0-2.5,1.8-4.4,4.2-4.4c2.4,0,4.2,2,4.2,4.3c0,2.4-1.8,4.3-4.4,4.3C86.7,19.8,84.8,17.9,84.8,15.5
			 M84.7,9.3V3.4h-3.4v19.3h3.4v-1.2c1.4,1.1,2.8,1.6,4.5,1.6c1.9,0,3.5-0.6,4.8-1.7c1.8-1.5,2.7-3.7,2.7-6c0-2.1-0.9-4.2-2.5-5.7
			c-1.4-1.3-3.1-1.9-5-1.9C87.4,7.8,86,8.2,84.7,9.3"/>
	</g>
	<g>
		<path class="st1" d="M99.1,8.2h3.2v14.6h-3.2V8.2z M99.1,3.4h3.2v3.2h-3.2V3.4z"/>
	</g>
	<g>
		<path class="st1" d="M108,15.3c0-2.4,1.9-4.2,4.2-4.2c2.1,0,4.1,1.9,4.1,4.4c0,2.3-1.9,4.2-4.1,4.2C109.9,19.6,108,17.8,108,15.3
			 M116.7,22.8h3.2V8.2h-3.2v1.7c-1-1.4-2.5-2.1-4.6-2.1c-2.2,0-3.9,0.7-5.4,2.3c-1.4,1.4-2.1,3.3-2.1,5.4c0,4.4,3.2,7.7,7.5,7.7
			c2.3,0,3.7-0.6,4.5-2.1L116.7,22.8L116.7,22.8z"/>
	</g>
</g>
<g>
	<polygon class="st1" points="34.5,29.1 43.4,29.1 53,19.5 62.6,29.1 71.6,29.1 57.5,15 71.7,0.8 62.7,0.8 53,10.5 43.3,0.8 
		34.4,0.8 48.5,15 	"/>
</g>
<path class="st1" d="M9.3,15.3v4.3c1.7,1.5,3.8,2.3,6.2,2.3c0,0,0,0,0,0c0,0,0,0,0,0c2.4,0,4.6-0.9,6.2-2.3v-4.3l-6.2,2L9.3,15.3z"
	/>
</svg>
